HIERARCHY
ROOT Hips
{
    OFFSET 0.000000 0.000000 0.000000
    CHANNELS 6 Xposition Yposition Zposition Zrotation Xrotation Yrotation
    JOINT Spine
    {
        OFFSET -0.000000 7.236184 0.000000
        CHANNELS 3 Zrotation Xrotation Yrotation
        JOINT Spine1
        {
            OFFSET -0.000000 20.420147 0.000000
            CHANNELS 3 Zrotation Xrotation Yrotation
            JOINT Neck
            {
                OFFSET -0.000000 20.336288 1.848754
                CHANNELS 3 Zrotation Xrotation Yrotation
                JOINT Head
                {
                    OFFSET -0.000000 12.354461 -1.764923
                    CHANNELS 3 Zrotation Xrotation Yrotation
                    End Site
                    {
                        OFFSET -0.000000 22.061537 0.000000
                    }
                }
            }
            JOINT LeftShoulder
            {
                OFFSET 3.573296 18.396038 -0.314103
                CHANNELS 3 Zrotation Xrotation Yrotation
                JOINT LeftArm
                {
                    OFFSET 10.880760 0.000000 0.000000
                    CHANNELS 3 Zrotation Xrotation Yrotation
                    JOINT LeftForeArm
                    {
                        OFFSET 27.185530 0.000000 0.000000
                        CHANNELS 3 Zrotation Xrotation Yrotation
                        JOINT LeftHand
                        {
                            OFFSET 27.825975 0.000000 0.000000
                            CHANNELS 3 Zrotation Xrotation Yrotation
                            End Site
                            {
                                OFFSET 13.236923 0.000000 0.000000
                            }
                        }
                    }
                }
            }
            JOINT RightShoulder
            {
                OFFSET -3.474926 18.396038 -0.314103
                CHANNELS 3 Zrotation Xrotation Yrotation
                JOINT RightArm
                {
                    OFFSET -10.880760 0.000000 0.000000
                    CHANNELS 3 Zrotation Xrotation Yrotation
                    JOINT RightForeArm
                    {
                        OFFSET -27.185530 0.000000 0.000000
                        CHANNELS 3 Zrotation Xrotation Yrotation
                        JOINT RightHand
                        {
                            OFFSET -27.825975 0.000000 0.000000
                            CHANNELS 3 Zrotation Xrotation Yrotation
                            End Site
                            {
                                OFFSET -13.236923 0.000000 0.000000
                            }
                        }
                    }
                }
            }
        }
    }
    JOINT LeftUpLeg
    {
        OFFSET 8.824615 0.000000 0.000000
        CHANNELS 3 Zrotation Xrotation Yrotation
        JOINT LeftLeg
        {
            OFFSET -0.000000 -35.111282 0.000000
            CHANNELS 3 Zrotation Xrotation Yrotation
            JOINT LeftFoot
            {
                OFFSET -0.000000 -42.324711 0.000000
                CHANNELS 3 Zrotation Xrotation Yrotation
                JOINT LeftToeBase
                {
                    OFFSET -0.000000 -5.735999 13.236923
                    CHANNELS 3 Zrotation Xrotation Yrotation
                    End Site
                    {
                        OFFSET -0.000000 0.000000 3.529846
                    }
                }
            }
        }
    }
    JOINT RightUpLeg
    {
        OFFSET -8.824615 0.000000 0.000000
        CHANNELS 3 Zrotation Xrotation Yrotation
        JOINT RightLeg
        {
            OFFSET -0.000000 -35.111282 0.000000
            CHANNELS 3 Zrotation Xrotation Yrotation
            JOINT RightFoot
            {
                OFFSET -0.000000 -42.324711 0.000000
                CHANNELS 3 Zrotation Xrotation Yrotation
                JOINT RightToeBase
                {
                    OFFSET -0.000000 -5.735999 13.236923
                    CHANNELS 3 Zrotation Xrotation Yrotation
                    End Site
                    {
                        OFFSET -0.000000 0.000000 3.529846
                    }
                }
            }
        }
    }
}
MOTION
Frames:    11
Frame Time:    0.008333
-8.527607    81.662430    103.649498    -0.523580    -11.036448    -178.627228    -2.085773    -14.387214    -0.451739    1.021563    12.511116    -0.300704    3.318773    -3.915139    1.629869    2.635768    -27.744083    2.078830    1.960602    20.879169    -2.980485    -62.798416    28.906246    -22.461279    0.107474    -7.352673    -3.725466    15.627339    -6.629888    5.277392    4.212953    22.731009    -4.511364    52.147766    39.568256    19.674488    -3.087195    -10.676282    11.803122    -16.242571    -9.874033    -3.475714    9.014961    -10.148538    3.090280    -2.636580    6.086400    2.073125    -8.964002    -4.850272    -7.142750    0.350839    -0.341745    -0.389133    -10.009897    -8.313106    -3.006786    3.136178    3.009838    2.190364    6.660350    -3.172924    -14.257888    -1.021968    -0.102079    1.105488    
-8.526630    81.661713    103.606178    -0.534167    -11.051618    -178.637970    -2.093025    -14.405741    -0.401959    1.059887    12.453872    -0.252936    3.277713    -3.921387    1.592591    2.552084    -27.650469    2.013835    1.948310    20.905413    -2.745811    -63.196659    28.683500    -21.990204    0.263090    -7.079744    -3.573404    16.641855    -6.236444    5.744116    4.194251    22.711071    -4.649040    52.563251    38.810421    19.139500    -3.104221    -10.486830    11.248948    -17.454220    -9.624590    -3.711296    9.003647    -10.135618    3.076592    -2.635449    6.096158    2.105194    -8.883435    -4.845731    -7.181723    0.289923    -0.390951    -0.321597    -10.045078    -8.285150    -2.901725    3.193198    2.997330    2.248518    6.615822    -3.213145    -14.403614    -1.011827    -0.115726    1.094539    
-8.525783    81.660820    103.562691    -0.544616    -11.065887    -178.647415    -2.100476    -14.424305    -0.352626    1.098771    12.398308    -0.206569    3.236520    -3.929317    1.556340    2.469433    -27.558893    1.950496    1.936079    20.931210    -2.512608    -63.578331    28.461245    -21.521372    0.423590    -6.807405    -3.422359    17.666573    -5.836266    6.199846    4.174394    22.691998    -4.785759    52.954929    38.050076    18.617060    -3.131494    -10.301923    10.698380    -18.659479    -9.374242    -3.944192    8.992436    -10.122394    3.062302    -2.634706    6.106653    2.136588    -8.806935    -4.843695    -7.219079    0.232526    -0.436538    -0.257951    -10.077938    -8.256249    -2.803492    3.245309    2.984714    2.301694    6.573367    -3.251206    -14.538082    -1.001188    -0.130169    1.083052    
-8.525179    81.659607    103.518913    -0.554843    -11.078337    -178.654465    -2.108232    -14.442754    -0.305465    1.138316    12.345915    -0.161542    3.195081    -3.940152    1.522036    2.388531    -27.471691    1.890026    1.924788    20.955849    -2.283008    -63.939548    28.242144    -21.055105    0.591721    -6.540155    -3.274167    18.704813    -5.433837    6.643974    4.151974    22.674667    -4.920338    53.319908    37.293694    18.105028    -3.166533    -10.130346    10.160943    -19.840637    -9.132931    -4.172634    8.981396    -10.108397    3.047008    -2.634576    6.118510    2.166231    -8.738979    -4.845780    -7.253500    0.180675    -0.477445    -0.200445    -10.108083    -8.225377    -2.713600    3.291530    2.972512    2.348867    6.532951    -3.286915    -14.659381    -0.989503    -0.145927    1.070435    
-8.524919    81.657959    103.474518    -0.564838    -11.088492    -178.658386    -2.116130    -14.461058    -0.268501    1.176777    12.297553    -0.110401    3.153463    -3.955006    1.490311    2.309241    -27.390369    1.833063    1.915237    20.979052    -2.056884    -64.280945    28.024914    -20.587986    0.770965    -6.280795    -3.130510    19.766493    -5.030947    7.078742    4.125996    22.660017    -5.052907    53.658298    36.541676    17.598755    -3.207523    -9.978221    9.641737    -20.986332    -8.907701    -4.396161    8.970516    -10.093300    3.030190    -2.635406    6.132059    2.194427    -8.680862    -4.852599    -7.285159    0.134124    -0.513964    -0.148810    -10.136246    -8.191902    -2.630165    3.333067    2.961645    2.391231    6.493362    -3.321271    -14.771052    -0.976269    -0.164274    1.056145    
-8.525064    81.655846    103.429726    -0.574360    -11.095758    -178.658813    -2.123755    -14.479294    -0.218414    1.218970    12.254250    -0.078331    3.111640    -3.974797    1.461859    2.232944    -27.316877    1.780781    1.908327    21.000570    -1.836570    -64.600014    27.808676    -20.122511    0.961214    -6.035505    -2.994992    20.846949    -4.634809    7.499892    4.095083    22.648842    -5.181703    53.968159    35.801235    17.099545    -3.252040    -9.851381    9.151584    -22.069345    -8.706600    -4.610730    8.960044    -10.076608    3.012116    -2.637177    6.147141    2.220114    -8.629875    -4.864705    -7.312955    0.092411    -0.548710    -0.102537    -10.161590    -8.155527    -2.554416    3.368716    2.952378    2.427288    6.455007    -3.353734    -14.870511    -0.961439    -0.184642    1.040131    
-8.525688    81.653236    103.383888    -0.583582    -11.100082    -178.655792    -2.130687    -14.497358    -0.177719    1.259629    12.215635    -0.041126    3.069272    -3.999377    1.436639    2.158709    -27.252180    1.732749    1.904065    21.021231    -1.618637    -64.901344    27.586678    -19.650738    1.165717    -5.805018    -2.868202    21.966227    -4.243709    7.912758    4.057869    22.641191    -5.307734    54.256283    35.059303    16.596903    -3.298575    -9.749821    8.687178    -23.090700    -8.530406    -4.816517    8.949651    -10.057718    2.992889    -2.639764    6.163571    2.244140    -8.579084    -4.882344    -7.337649    0.053659    -0.584333    -0.059542    -10.182694    -8.115960    -2.489361    3.395374    2.944875    2.453212    6.419283    -3.383408    -14.950498    -0.944651    -0.207701    1.022002    
-8.526824    81.650269    103.337463    -0.592214    -11.101446    -178.649719    -2.136153    -14.515234    -0.139731    1.299371    12.182105    -0.006046    3.026529    -4.028463    1.414857    2.087926    -27.198463    1.689911    1.902418    21.040701    -1.404964    -65.181450    27.356186    -19.176647    1.380008    -5.595772    -2.753963    23.116529    -3.865796    8.310925    4.013782    22.637688    -5.429821    54.521221    34.321285    16.094694    -3.344759    -9.675119    8.256785    -24.026442    -8.383224    -5.009144    8.939181    -10.036120    2.974204    -2.642099    6.179936    2.266621    -8.546144    -4.901730    -7.363142    0.015435    -0.624626    -0.017129    -10.196948    -8.074033    -2.440051    3.408647    2.939077    2.463434    6.389254    -3.408341    -15.000009    -0.926400    -0.232737    1.002291    
-8.528523    81.647026    103.290108    -0.600358    -11.099943    -178.640961    -2.139534    -14.532711    -0.103520    1.337634    12.152484    0.027092    2.983101    -4.062154    1.396349    2.020478    -27.155535    1.651926    1.903019    21.059875    -1.193153    -65.441490    27.110527    -18.696121    1.602686    -5.410082    -2.652848    24.310596    -3.502006    8.696156    3.962712    22.638273    -5.548622    54.767303    33.576511    15.586527    -3.389604    -9.624678    7.857650    -24.877218    -8.263208    -5.189191    8.927734    -10.010830    2.957812    -2.642704    6.194600    2.289718    -8.523023    -4.921902    -7.392693    -0.022352    -0.670330    0.024806    -10.203913    -8.030083    -2.406429    3.407699    2.935707    2.455383    6.366183    -3.429262    -15.016351    -0.907384    -0.258856    0.981753    
-8.530778    81.643639    103.242180    -0.607990    -11.095900    -178.629745    -2.140717    -14.549760    -0.069151    1.374214    12.126472    0.058066    2.938451    -4.099581    1.380792    1.957896    -27.124748    1.619305    1.905027    21.078699    -0.984689    -65.678032    26.848392    -18.212234    1.828767    -5.253782    -2.567451    25.540340    -3.159702    9.064143    3.905011    22.642242    -5.664312    54.993320    32.829819    15.075477    -3.431842    -9.597219    7.492785    -25.632332    -8.170424    -5.355983    8.914673    -9.981606    2.945619    -2.640120    6.205974    2.315102    -8.501720    -4.941994    -7.429051    -0.057891    -0.718276    0.064254    -10.205106    -7.984964    -2.384036    3.395662    2.935582    2.430604    6.350332    -3.448794    -15.006340    -0.889028    -0.284183    0.961926    
-8.533399    81.640388    103.196190    -0.614822    -11.089844    -178.616638    -2.139836    -14.565570    -0.038796    1.406912    12.104630    0.085564    2.895175    -4.138189    1.368724    1.903361    -27.106878    1.593260    1.907578    21.096830    -0.790930    -65.878113    26.584354    -17.751728    2.042754    -5.137712    -2.503135    26.734911    -2.860728    9.395814    3.845443    22.649023    -5.771445    55.188038    32.123520    14.589335    -3.469151    -9.591168    7.179636    -26.256817    -8.106565    -5.504352    8.900349    -9.950325    2.938299    -2.634040    6.213480    2.342194    -8.489938    -4.959301    -7.472638    -0.088886    -0.762772    0.098663    -10.203108    -7.941184    -2.367526    3.378358    2.939178    2.393827    6.341605    -3.469474    -14.981568    -0.873876    -0.305136    0.945559    
